# xmcd CD database file
#
# Track frame offsets:
#	150
#	23926
#	38332
#	52780
#	72522
#	90105
#	105180
#	117543
#	135104
#	148814
#	161430
#	173618
#
# Disc length: 2610 seconds
#
# Revision: 0
# Processed by: cddbd v1.5.1PL0 Copyright (c) Steve Scherf et al.
# Submitted via: CDex 1.51
#
DISCID=870a300c
DTITLE=Cecilia - LET THERE BE PEACE ON EARTH
DYEAR=1900
DGENRE=New Age
TTITLE0=O Holy Night
TTITLE1=O Come All Ye Faithful
TTITLE2=White Christmas
TTITLE3=Ave Maria(Schubert)
TTITLE4=Mitt Hjerte Alltid Vanker(Scandinavian Hymn)
TTITLE5=When You Wish Upon a Star
TTITLE6=The First Noel
TTITLE7=Have Yourself a Merry Little Christmas
TTITLE8=Let There Be Peace On Earth
TTITLE9=Ave Maria(Gounod)
TTITLE10=Silent Night
TTITLE11=Pie Jesu
EXTD=
EXTT0=
EXTT1=
EXTT2=
EXTT3=
EXTT4=
EXTT5=
EXTT6=
EXTT7=
EXTT8=
EXTT9=
EXTT10=
EXTT11=
PLAYORDER=
